<?xml version="1.0" encoding="utf-8"?>
<svg viewBox="0 0.581 500 500" xmlns="http://www.w3.org/2000/svg" xmlns:bx="https://boxy-svg.com">
  <defs>
    <linearGradient gradientUnits="userSpaceOnUse" x1="365.23" y1="119.129" x2="365.23" y2="359.78" id="gradient-1" gradientTransform="matrix(0.873228, -0.487311, 0.520486, 0.850323, -15.703974, 203.811615)">
      <stop offset="0" style="stop-color: rgb(255, 255, 255);"/>
      <stop offset="1" style=""/>
    </linearGradient>
    <linearGradient gradientUnits="userSpaceOnUse" x1="171.845" y1="172.255" x2="171.845" y2="359.554" id="gradient-0" gradientTransform="matrix(0.983301, 0.181978, -0.129688, 0.93977, 25.208718, -12.897022)">
      <stop offset="0" style="stop-color: rgb(203, 203, 203);"/>
      <stop offset="1" style="stop-color: rgb(24, 24, 24);"/>
    </linearGradient>
    <radialGradient gradientUnits="userSpaceOnUse" cx="250.258" cy="163.225" r="64.997" id="gradient-3" gradientTransform="matrix(0.988106, 0.153773, -0.192421, 1.236444, 34.384439, -69.076729)">
      <stop offset="0" style="stop-color: rgb(255, 96, 162);"/>
      <stop offset="1" style="stop-color: rgb(255, 188, 217);"/>
    </radialGradient>
    <linearGradient gradientUnits="userSpaceOnUse" x1="253.488" y1="55.855" x2="253.488" y2="233.87" id="gradient-2" gradientTransform="matrix(-0.978045, 0.208397, -0.181921, -0.648996, 505.138421, 139.771915)" spreadMethod="reflect">
      <stop offset="0" style="stop-color: rgb(207, 207, 207);"/>
      <stop offset="1" style="stop-color: rgb(241, 241, 241);"/>
    </linearGradient>
    <style bx:fonts="Libre Franklin">@import url(https://fonts.googleapis.com/css2?family=Libre+Franklin%3Aital%2Cwght%400%2C100%3B0%2C200%3B0%2C300%3B0%2C400%3B0%2C500%3B0%2C600%3B0%2C700%3B0%2C800%3B0%2C900%3B1%2C100%3B1%2C200%3B1%2C300%3B1%2C400%3B1%2C500%3B1%2C600%3B1%2C700%3B1%2C800%3B1%2C900&amp;display=swap);</style>
  </defs>
  <path style="stroke: rgb(0, 0, 0); stroke-opacity: 0; fill: url(#gradient-2);" d="M 258.88 63.855 C 287.079 119.839 347.151 176.481 409.482 211.895 L 245.305 241.87 C 180.556 205.743 119.972 136.215 97.493 95.558 L 258.88 63.855 Z" transform="matrix(0.869467, -0.493991, 0.493991, 0.869467, -42.424211, 145.174154)"/>
  <path style="stroke: rgb(0, 55, 255); stroke-opacity: 0; fill: url(#gradient-0);" d="M 290.54 367.554 L 53.149 307.538 L 89.369 180.255 C 131.938 206.232 221.093 234.952 290.267 234.067 L 290.54 367.554 Z" transform="matrix(0.999998, 0.001908, -0.001908, 0.999998, 0.522923, -0.327381)"/>
  <path style="stroke: rgb(255, 0, 0); stroke-opacity: 0; fill: url(#gradient-1);" d="M 440.118 223.641 L 290.361 367.78 L 290.342 234.293 L 418.281 127.129 L 440.118 223.641 Z"/>
  <title>red-heart</title>
  <path class="cls-1" d="M 244.718 205.729 C 249.584 213.623 252.474 220.447 264.49 221.8 C 286.992 224.295 317.848 201.875 315.081 179.801 C 314.292 173.516 310.494 166.039 305.905 158.704 C 300.867 150.651 294.876 142.756 290.868 136.773 L 279.93 120.459 L 259.924 133.541 C 235.853 149.29 199.071 169.111 187.914 193.669 C 180.176 210.872 190.21 221.894 207.067 221.696 C 222.136 221.506 231.338 214.568 244.718 205.729 Z" style="fill-rule: evenodd; fill: url(#gradient-3);" transform="matrix(-0.940305, -0.340333, 0.340333, -0.940305, 427.303209, 417.399426)"/>
  <title>red-heart</title>
  <text style="fill: rgb(69, 69, 69); font-family: &quot;Libre Franklin&quot;; font-size: 46px; font-weight: 700; white-space: pre;" x="67.581" y="424.7">KeebCompanion</text>
</svg>